<svg width="106" height="39" viewBox="0 0 106 39" fill="none" xmlns="http://www.w3.org/2000/svg">
<path d="M7.59318 0.251005L8.04084 0.951032C4.93384 2.98444 3.37691 5.01786 3.37004 7.05127C3.36655 8.08464 3.81455 8.68466 4.71402 8.85134L6.8207 6.90126C7.48661 7.1346 8.08517 7.56795 8.61639 8.20131C9.18105 8.80134 9.46176 9.5847 9.45849 10.5514C9.45523 11.5181 9.06906 12.3515 8.3 13.0515C7.53105 13.7182 6.51321 14.0515 5.24649 14.0515C4.0131 14.0515 2.98113 13.6349 2.15057 12.8015C1.35347 11.9348 0.957443 10.7514 0.962507 9.25135C0.973536 5.98456 3.18376 2.98444 7.59318 0.251005ZM13.3563 22.6019C13.378 16.1683 14.8281 11.2014 17.7068 7.70129C20.6187 4.20116 24.5915 2.45109 29.625 2.45109C33.0585 2.45109 35.6896 3.15112 37.5183 4.55117C39.3471 5.91789 40.2577 7.71796 40.2502 9.95138C40.2459 11.2181 39.8255 12.3181 38.989 13.2515C38.1859 14.1515 37.1177 14.6016 35.7843 14.6016C34.4509 14.6016 33.3853 14.2515 32.5877 13.5515C31.7901 12.8182 31.393 11.9681 31.3962 11.0014C31.3996 10.0014 31.5359 9.13468 31.805 8.40132H33.4051C33.6069 7.86797 33.7089 7.26794 33.7112 6.60125C33.7183 4.50117 32.5384 3.45113 30.1717 3.45113C27.8049 3.45113 26.0673 4.68451 24.9589 7.15127C23.8507 9.5847 23.2697 13.8015 23.2161 19.8018C24.9587 17.1017 27.48 15.7516 30.7802 15.7516C34.0803 15.7516 36.6774 16.6516 38.5714 18.4517C40.4655 20.2184 41.4065 22.8852 41.3945 26.452C41.3825 30.0188 40.1226 32.9189 37.615 35.1523C35.1073 37.3858 31.7534 38.5025 27.5532 38.5025C18.0528 38.5025 13.3205 33.2023 13.3563 22.6019ZM28.2245 17.4017C27.0911 17.4017 26.1229 17.835 25.32 18.7017C24.5504 19.5351 24.0137 20.5351 23.7098 21.7018C23.4393 22.8352 23.3008 24.3353 23.2945 26.202C23.2884 28.0354 23.284 29.3188 23.2815 30.0522C23.3125 30.7522 23.3597 31.6022 23.4229 32.6022C23.5197 33.569 23.6506 34.2856 23.8157 34.7523C23.9809 35.1857 24.2127 35.6524 24.511 36.1524C25.0414 37.0191 25.89 37.4524 27.0567 37.4524C28.2234 37.4524 29.0909 37.2358 29.659 36.8024C30.2606 36.3357 30.6966 35.569 30.9669 34.5023C31.3722 32.9356 31.5788 30.9855 31.5866 28.6521C31.5945 26.3187 31.5831 24.7686 31.5523 24.0019C31.5549 23.2352 31.5243 22.4352 31.4604 21.6018C31.3967 20.7351 31.2822 20.0851 31.117 19.6518C30.9851 19.2184 30.8032 18.8017 30.5712 18.4017C30.1401 17.735 29.3579 17.4017 28.2245 17.4017ZM58.7151 38.5025C53.8816 38.5025 50.2036 36.8691 47.6812 33.6023C45.1921 30.3355 43.9575 25.7687 43.9773 19.9018C43.9971 14.0349 45.3619 9.66803 48.0717 6.80126C50.7816 3.90115 54.47 2.45109 59.1369 2.45109C63.8371 2.45109 67.5157 3.88448 70.1728 6.75126C72.8633 9.61803 74.1979 14.1849 74.1767 20.4518C74.1556 26.7187 72.7901 31.3022 70.0801 34.2023C67.3703 37.0691 63.582 38.5025 58.7151 38.5025ZM54.2321 18.6017L54.2171 23.0519C54.2062 26.2853 54.2151 28.5688 54.244 29.9021C54.3061 31.2355 54.4848 32.6189 54.78 34.0523C55.0751 35.4857 55.5554 36.4191 56.2206 36.8524C56.8859 37.2524 57.6686 37.4524 58.5687 37.4524C59.4687 37.4524 60.1356 37.4024 60.5693 37.3024C61.0363 37.2024 61.437 37.0024 61.7713 36.7024C62.1391 36.3691 62.4402 36.0524 62.6746 35.7524C62.9091 35.419 63.0941 34.919 63.2297 34.2523C63.3986 33.5856 63.534 32.9689 63.6359 32.4022C63.7379 31.8356 63.8073 31.0022 63.8444 29.9021C63.9183 27.7687 63.9589 25.6186 63.9662 23.4519L63.981 19.0517C64.0031 12.5181 63.7673 8.30131 63.2737 6.40124C62.8135 4.46783 61.4501 3.50113 59.1833 3.50113C56.9165 3.50113 55.5298 4.4845 55.0232 6.45124C54.5165 8.41799 54.2528 12.4681 54.2321 18.6017ZM86.2538 38.5025L86.2841 29.5521H86.8841C87.741 32.4522 88.9008 34.4857 90.3636 35.6524C91.8264 36.8191 93.6579 37.4024 95.858 37.4024C99.2581 37.4024 100.962 36.3191 100.969 34.1523C100.972 33.2189 100.558 32.5189 99.7262 32.0522C98.4286 31.3189 96.7638 30.7522 94.7317 30.3522C92.467 29.7521 90.5696 28.9521 89.0396 27.9521C87.2102 26.752 86.2999 24.852 86.3087 22.2519C86.3175 19.6518 87.1245 17.585 88.7297 16.0516C90.3351 14.4849 92.4712 13.7015 95.138 13.7015C96.7714 13.7015 98.4535 14.0849 100.184 14.8516C100.817 15.1182 101.3 15.2516 101.633 15.2516C101.966 15.2516 102.25 15.1349 102.484 14.9016C102.718 14.6682 103.003 14.2349 103.339 13.6015H103.889L103.863 21.2518H103.263C101.577 16.9183 98.9512 14.7516 95.3844 14.7516C93.8177 14.7516 92.65 15.0349 91.8814 15.6016C91.1129 16.135 90.7272 16.8183 90.7244 17.6517C90.7227 18.1517 90.8381 18.5517 91.0704 18.8517C91.3028 19.1184 91.4855 19.3184 91.6184 19.4517C91.7513 19.5851 91.9674 19.7351 92.2669 19.9018C92.5665 20.0351 92.8161 20.1518 93.0157 20.2518C93.2155 20.3184 93.5152 20.4184 93.9148 20.5518C94.3477 20.6851 94.6641 20.7685 94.864 20.8018C97.1288 21.3685 98.7605 21.8685 99.7591 22.3019C100.758 22.7019 101.706 23.2019 102.604 23.8019C104.433 25.0686 105.343 27.1187 105.334 29.9521C105.324 32.7523 104.484 34.8857 102.812 36.3524C101.14 37.7858 98.8544 38.5025 95.9543 38.5025C93.8875 38.5025 91.889 38.0191 89.9589 37.0524C89.5598 36.7857 89.2435 36.6524 89.0102 36.6524C88.2768 36.6524 87.5581 37.2691 86.8539 38.5025H86.2538Z" fill="#BF9F4C"/>
</svg>
